<?xml version="1.0" standalone="no"?><!DOCTYPE svg PUBLIC "-//W3C//DTD SVG 1.1//EN" "http://www.w3.org/Graphics/SVG/1.1/DTD/svg11.dtd"><svg t="1764321802417" class="icon" viewBox="0 0 1024 1024" version="1.1" xmlns="http://www.w3.org/2000/svg" p-id="8819" xmlns:xlink="http://www.w3.org/1999/xlink" width="48" height="48"><path d="M155.370501 878.023994c3.613267-4.335921 6.503881-7.949188 9.394495-10.839802 19.511644-22.402258 38.300635-44.804517 57.81228-67.206775 18.788991-22.402258 38.300635-44.081863 57.089626-66.484121 18.788991-22.402258 38.300635-44.804517 57.089626-67.206775 18.788991-22.402258 38.300635-44.081863 57.089626-66.484122 13.007763-14.45307 25.292872-28.90614 38.300635-43.359209 1.445307-2.16796 1.445307-4.335921 0-6.503882-20.956951-30.351447-41.913903-59.98024-62.870854-90.331686-14.45307-20.956951-28.90614-41.913903-42.636556-62.148201-27.460833-41.191249-55.644319-81.659845-83.827805-122.12844-16.62103-23.847565-33.242061-48.417784-49.863091-72.265349-11.562456-18.066337-23.847565-36.132675-36.132675-53.476359-0.722653-0.722653-1.445307-1.445307-2.16796-3.613267 2.16796 0 3.613267-0.722653 5.058574-0.722654H361.326747c4.335921 0 6.503881 1.445307 8.671842 4.335921 28.90614 41.913903 57.812279 84.550459 86.718419 126.464361 24.570219 36.855328 49.140438 72.265349 73.710656 107.675371 6.503881 9.394495 13.007763 19.511644 20.234298 28.90614 2.16796 2.890614 2.16796 2.890614 4.335921 0l65.761468-76.601271c18.788991-22.402258 38.300635-44.081863 57.089626-66.484121 20.234298-23.124912 40.468596-46.972477 60.702893-70.097389 15.175723-17.343684 29.628793-34.687368 44.804517-51.308398 0.722653-1.445307 2.890614-2.16796 4.335921-2.16796h55.644319c0.722653 0 1.445307 0 2.890614 0.722653-2.890614 3.613267-5.781228 6.503881-8.671842 10.117149-15.898377 18.066337-31.0741 36.132675-46.972477 54.921666-16.62103 19.511644-33.964714 39.023289-50.585745 58.534932-15.175723 17.343684-30.351447 35.410021-45.52717 52.753706-15.175723 17.343684-30.351447 35.410021-46.249824 53.476358-15.175723 17.343684-29.628793 34.687368-44.804516 52.031052-7.226535 7.949188-13.730416 15.898377-20.956951 23.847565-2.16796 2.890614-2.16796 4.335921-0.722654 6.503881 19.511644 28.183486 39.023289 56.366972 57.81228 84.550459 14.45307 20.956951 28.90614 41.913903 42.636556 62.1482 28.183486 40.468596 55.644319 80.937191 83.827805 122.128441 16.62103 24.570219 33.242061 49.140438 50.585744 72.988003 16.62103 24.570219 33.964714 49.140438 50.585745 73.710656 0.722653 0.722653 1.445307 2.16796 2.16796 3.613267-1.445307 0-2.890614 0.722653-3.613267 0.722654H661.9506c-2.890614 0-5.058574-0.722653-6.503882-3.613268-31.796754-46.972477-64.316161-93.222301-96.112914-140.194777L485.623147 628.708539c-7.226535-10.839802-15.175723-21.679605-22.402258-32.519407-2.16796-2.890614-2.16796-2.890614-4.335921 0-21.679605 25.292872-43.35921 49.863091-65.038814 75.155963-15.898377 19.511644-32.519407 39.023289-49.140438 57.81228-21.679605 25.292872-43.35921 49.863091-64.316161 75.155963l-53.476358 62.1482c-2.890614 2.890614-5.058574 6.503881-7.949189 9.394496a6.503881 6.503881 0 0 1-5.058574 2.16796h-58.534933z m629.431193-44.081863c-0.722653-1.445307-1.445307-2.890614-2.167961-3.613267l-30.351446-43.35921c-33.964714-49.140438-68.652082-98.280875-102.616797-147.421312-36.855328-52.031052-73.710656-104.784757-110.565984-157.538462-33.242061-48.417784-67.206775-96.112915-100.448836-144.530699-33.242061-46.972477-66.484121-94.667608-99.726182-141.640084-1.445307-2.16796-2.890614-3.613267-5.781228-3.613268H242.811574c-1.445307 0-2.16796 0-3.613268 0.722654 0.722653 1.445307 1.445307 2.890614 2.167961 3.613267 18.066337 25.292872 35.410021 51.308398 53.476358 76.60127 26.015526 37.577982 52.031052 75.155963 78.769231 112.733945l71.542696 101.894143c26.738179 38.300635 53.476359 75.878617 80.214538 114.179252 23.124912 33.964714 46.249824 67.206775 69.374735 100.448835 29.628793 42.636556 59.257586 85.273112 89.609033 127.909669 1.445307 2.890614 3.613267 3.613267 7.226535 3.613267h93.222301z" p-id="8820"></path><path d="M143.808045 863.570924L411.912491 552.107269 118.515173 128.632322l40.468596-0.722654h201.620324c9.394495-0.722653 18.066337 4.335921 23.847565 12.28511l169.100918 246.424841 215.350741-250.038109c4.335921-5.058574 11.562456-7.949188 18.066337-8.671842h97.558222l-33.242061 40.468596L610.642202 448.045166c-2.890614 2.890614-5.781228 6.503881-7.949189 9.394495l300.623854 439.373324H661.9506c-9.394495 0-16.62103-4.335921-21.679605-11.562456L460.330275 622.927311l-219.686662 255.096683c-4.335921 5.058574-6.503881 7.949188-9.394495 10.117149-2.16796 2.16796-8.671842 7.226535-16.62103 7.949189H116.347212l25.292873-30.351447m528.259703-1.445307c0 0.722653 0 0 0 0zM462.498236 575.954834c9.394495 0.722653 14.45307 7.226535 15.898377 9.394496l188.612561 274.608327h168.378264L567.282992 469.002117c-6.503881-8.671842-5.781228-19.511644 1.445307-28.183486l238.475653-276.776288h-14.45307l-230.526464 267.381792-10.839803 1.445307c-9.394495 0-14.45307-7.226535-15.898376-9.394495L356.990826 164.042343H188.612562l257.987297 375.779816c6.503881 9.394495 5.781228 20.234298-1.445307 28.183487L193.671136 859.957657h14.45307c0.722653-0.722653 1.445307-1.445307 2.167961-2.890614L450.93578 578.122795l11.562456-2.167961z m134.413549-127.187015z m94.667608 403.24065c-8.671842 0-16.62103-3.613267-21.679605-10.839803L209.569513 179.218066l33.242061-5.058574h90.331686c8.671842 0 15.898377 3.613267 20.956952 10.839802l461.775582 663.395907-28.90614 2.890614-2.16796-18.066337 0.722653 18.066337h-5.058574l-88.88638 0.722654zM273.16302 210.292167l422.752294 605.583627h54.921666L327.362032 210.292167h-54.199012z" p-id="8821"></path></svg>